<?xml version="1.0" standalone="no"?>
<!DOCTYPE svg PUBLIC "-//W3C//DTD SVG 20010904//EN"
 "http://www.w3.org/TR/2001/REC-SVG-20010904/DTD/svg10.dtd">
<svg version="1.0" xmlns="http://www.w3.org/2000/svg"
 width="512.000000pt" height="512.000000pt" viewBox="0 0 512.000000 512.000000"
 preserveAspectRatio="xMidYMid meet">

<g transform="translate(0.000000,512.000000) scale(0.100000,-0.100000)"
fill="#000000" stroke="none">
<path d="M820 5110 c-188 -34 -345 -184 -379 -363 -5 -26 -11 -51 -14 -54 -3
-3 -28 -9 -54 -14 -146 -28 -303 -165 -344 -302 -51 -166 -17 -318 96 -436
103 -108 235 -148 449 -136 l119 7 168 -168 167 -167 -24 -66 c-64 -175 -100
-419 -90 -617 15 -313 99 -574 268 -836 l50 -78 -25 -29 c-13 -16 -134 -145
-268 -286 l-244 -257 -120 6 c-147 8 -254 -8 -341 -52 -160 -81 -255 -264
-226 -437 33 -201 187 -357 383 -389 35 -6 37 -8 48 -65 45 -229 281 -397 508
-362 123 19 241 97 300 199 52 87 66 155 67 308 l1 140 169 182 c93 100 172
182 175 182 3 0 26 -14 49 -30 24 -16 69 -40 100 -52 l57 -23 695 0 695 0 57
23 c32 13 81 39 109 59 l52 35 172 -173 172 -174 -8 -85 c-27 -264 53 -455
229 -548 102 -54 194 -64 308 -34 167 44 302 186 335 352 l11 58 57 11 c169
34 313 173 355 342 19 77 20 119 5 191 -24 112 -114 234 -209 283 -91 46 -156
59 -297 60 l-133 0 -285 285 c-157 157 -285 289 -285 294 0 4 15 29 34 55 103
141 216 421 250 621 46 260 26 544 -55 796 -16 50 -29 94 -29 96 0 3 82 82
182 174 l181 169 136 0 c145 0 209 13 301 60 95 49 185 171 209 283 15 72 14
114 -5 191 -42 169 -186 308 -355 342 l-57 11 -11 57 c-34 169 -173 313 -342
355 -77 19 -119 20 -191 5 -112 -24 -234 -114 -283 -209 -47 -92 -59 -156 -58
-296 0 -72 3 -139 7 -150 5 -16 -20 -44 -128 -142 -74 -67 -139 -122 -144
-122 -5 0 -33 17 -63 38 -128 92 -327 181 -503 226 -447 116 -912 45 -1300
-199 l-90 -56 -137 137 -137 137 5 106 c9 187 -34 317 -138 416 -68 65 -138
100 -229 114 -72 12 -67 12 -130 1z m117 -307 c72 -34 92 -112 76 -290 -7 -70
-7 -119 0 -142 7 -27 53 -80 177 -206 l168 -170 -35 -40 c-19 -22 -60 -75 -92
-117 l-57 -77 -164 164 c-90 90 -178 172 -196 181 -29 16 -43 16 -177 4 -214
-19 -283 -4 -321 73 -24 51 -15 97 31 148 53 59 95 68 192 40 96 -28 136 -22
185 26 47 48 53 91 26 182 -15 48 -20 83 -16 106 12 62 92 133 149 135 11 0
35 -8 54 -17z m3391 -20 c53 -42 70 -96 53 -165 -33 -138 -23 -197 42 -237 42
-25 81 -26 167 -5 88 23 134 14 182 -37 87 -92 51 -202 -76 -229 -45 -9 -85
-9 -175 0 -101 10 -123 10 -153 -3 -20 -9 -118 -91 -218 -184 -100 -92 -185
-169 -190 -171 -4 -2 -30 28 -57 65 -27 37 -69 90 -92 117 l-43 50 30 25 c127
108 302 278 313 303 10 25 10 63 1 187 -15 206 -4 261 61 302 45 28 107 21
155 -18z m-1621 -584 c248 -27 474 -118 673 -270 465 -354 646 -969 450 -1524
-81 -228 -207 -407 -409 -582 -111 -96 -110 -94 -111 -311 0 -163 -2 -187 -20
-222 -31 -60 -78 -80 -190 -80 l-90 0 0 90 c0 71 -4 99 -20 130 -23 45 -80 80
-130 80 -50 0 -107 -35 -130 -80 -16 -31 -20 -59 -20 -130 l0 -90 -150 0 -150
0 0 90 c0 112 -20 159 -80 190 -50 25 -90 25 -140 0 -60 -31 -80 -78 -80 -190
l0 -90 -90 0 c-112 0 -159 20 -190 80 -18 35 -20 59 -20 222 -1 216 -1 216
-105 305 -255 218 -407 475 -471 798 -27 134 -25 386 4 522 75 349 278 650
572 850 63 43 211 116 295 146 186 66 396 89 602 66z m1665 -3188 c29 -10 64
-10 151 -1 89 9 127 9 172 0 128 -27 165 -137 77 -229 -51 -54 -93 -61 -201
-32 l-84 22 -46 -23 c-35 -18 -51 -34 -69 -70 l-23 -47 20 -73 c12 -41 21 -87
21 -101 0 -104 -122 -187 -208 -143 -71 37 -85 97 -70 301 6 83 8 164 4 180
-5 21 -83 106 -257 280 l-249 251 0 131 0 131 42 36 42 36 320 -319 c246 -243
330 -321 358 -330z m-2897 608 l35 -31 0 -142 0 -141 -236 -250 c-146 -155
-243 -266 -255 -294 -20 -41 -20 -49 -9 -161 15 -147 3 -220 -41 -261 -58 -54
-129 -49 -189 11 -50 50 -59 93 -36 180 9 36 16 81 16 100 0 50 -33 98 -82
120 -45 20 -69 19 -152 -7 -89 -28 -173 4 -210 80 -21 46 -20 85 4 124 41 67
109 78 360 59 l115 -9 42 34 c23 19 167 166 319 327 152 160 278 292 280 292
2 0 19 -14 39 -31z"/>
<path d="M1871 3299 c-227 -44 -391 -278 -353 -505 32 -196 180 -344 376 -376
289 -48 556 219 508 508 -42 255 -281 422 -531 373z m159 -309 c45 -23 80 -80
80 -130 0 -76 -74 -150 -150 -150 -50 0 -107 35 -130 80 -25 50 -25 90 0 140
37 73 124 99 200 60z"/>
<path d="M3071 3299 c-227 -44 -391 -278 -353 -505 32 -196 180 -344 376 -376
289 -48 556 219 508 508 -42 255 -281 422 -531 373z m159 -309 c45 -23 80 -80
80 -130 0 -50 -35 -107 -80 -130 -21 -11 -53 -20 -70 -20 -50 0 -107 35 -130
80 -25 50 -25 90 0 140 37 73 124 99 200 60z"/>
<path d="M2490 2388 c-43 -23 -49 -32 -137 -207 -67 -132 -93 -193 -93 -220 1
-77 73 -151 148 -151 45 0 107 34 129 70 9 16 20 30 23 30 3 0 14 -13 25 -29
25 -38 84 -71 127 -71 75 0 147 74 148 151 0 26 -26 89 -90 216 -75 153 -95
184 -125 203 -54 33 -102 36 -155 8z"/>
</g>
</svg>
